/* XPM */
static char *ebdb57b73aac44fbe9f494f12376eeb2dVr130uaTW226jDI[] = {
/* columns rows colors chars-per-pixel */
"64 64 157 2 ",
"   c None",
".  c #C13527",
"X  c #C03627",
"o  c #C13627",
"O  c #C23726",
"+  c #C23627",
"@  c #C23727",
"#  c #C33926",
"$  c #C03628",
"%  c #C13628",
"&  c #C03728",
"*  c #C13728",
"=  c #C23628",
"-  c #C23728",
";  c #C33728",
":  c #C23729",
">  c #C43729",
",  c #C53729",
"<  c #C33828",
"1  c #C33829",
"2  c #C43828",
"3  c #C43829",
"4  c #C53829",
"5  c #C53929",
"6  c #C63929",
"7  c #C63A29",
"8  c #C73A29",
"9  c #C4382A",
"0  c #C5382A",
"q  c #C5392A",
"w  c #C7382A",
"e  c #C6392A",
"r  c #C7392A",
"t  c #C73A2A",
"y  c #C73A2B",
"u  c #C83A2A",
"i  c #C93A2A",
"p  c #C93B2A",
"a  c #C83A2B",
"s  c #C93A2B",
"d  c #C93B2B",
"f  c #CA3B2A",
"g  c #CA3B2B",
"h  c #CB3B2B",
"j  c #CB3C2B",
"k  c #CC3C2B",
"l  c #C93B2C",
"z  c #CA3B2C",
"x  c #CB3B2C",
"c  c #CB3C2D",
"v  c #CC3C2C",
"b  c #CD3C2C",
"n  c #CD3D2C",
"m  c #CC3C2D",
"M  c #CD3D2D",
"N  c #CF3D2D",
"B  c #CE3E2D",
"V  c #CF3E2D",
"C  c #CF3D2E",
"Z  c #CF3E2E",
"A  c #D03E2E",
"S  c #D03F2E",
"D  c #D13F2E",
"F  c #D03E2F",
"G  c #D13E2F",
"H  c #D13F2F",
"J  c #D23F2F",
"K  c #DE6F1F",
"L  c #DF701F",
"P  c #E3771E",
"I  c #E3791E",
"U  c #E4791D",
"Y  c #E57B1D",
"T  c #E4791E",
"R  c #E57B1E",
"E  c #E57C1D",
"W  c #E67D1C",
"Q  c #E67D1D",
"!  c #E67E1C",
"~  c #E77E1C",
"^  c #E77F1C",
"/  c #E67E1D",
"(  c #C74225",
")  c #C94524",
"_  c #CC4B24",
"`  c #CE4F24",
"'  c #D1402E",
"]  c #D2402E",
"[  c #D2402F",
"{  c #D3402F",
"}  c #D3412F",
"|  c #D4402F",
" . c #D4412F",
".. c #D5412F",
"X. c #CE5024",
"o. c #D55C21",
"O. c #D44030",
"+. c #D44130",
"@. c #D54130",
"#. c #D54131",
"$. c #D64131",
"%. c #D54230",
"&. c #D64230",
"*. c #D74230",
"=. c #D74231",
"-. c #D74132",
";. c #D74232",
":. c #D84231",
">. c #D84331",
",. c #D84232",
"<. c #D84332",
"1. c #D94332",
"2. c #D84233",
"3. c #D94333",
"4. c #DA4332",
"5. c #DA4433",
"6. c #DB4433",
"7. c #DC4433",
"8. c #DC4533",
"9. c #DC4434",
"0. c #DC4534",
"q. c #DD4534",
"w. c #DE4534",
"e. c #DE4535",
"r. c #DF4635",
"t. c #E04635",
"y. c #E04735",
"u. c #E14735",
"i. c #E04636",
"p. c #E14736",
"a. c #E34737",
"s. c #E14836",
"d. c #E24836",
"f. c #E34836",
"g. c #E24837",
"h. c #E34837",
"j. c #E34937",
"k. c #E44837",
"l. c #E44937",
"z. c #E54937",
"x. c #E54938",
"c. c #E64938",
"v. c #E54A38",
"b. c #E64A38",
"n. c #E74A38",
"m. c #E74B38",
"M. c #E74A39",
"N. c #E74B39",
"B. c #E84B38",
"V. c #E84A39",
"C. c #E84B39",
"Z. c #E94B39",
"A. c #E84B3A",
"S. c #E94B3A",
"D. c #E94D39",
"F. c #E84C3A",
"G. c #DE6D20",
/* pixels */
"                                                                                                                                ",
"                                                                                                                                ",
"                                                                                                                                ",
"                                        o                     C.C.C.C.                                                          ",
"                                      o o o o o           C.C.C.C.C.C.    = o o o o o                                           ",
"                                    o o o o o o o       C.C.C.C.C.C.C.z.h = o o o o = #                                         ",
"                                  o o o o o o o o 2     C.C.C.C.C.C.C.z.h , o o o o o o                                         ",
"                                  o o o o o o o o o ,   C.C.C.C.C.C.C.z.J 4 o o o o o o                                         ",
"                                  o = o o o o o o o J C.C.C.C.C.C.C.C.C.%.z o o o o o o                                         ",
"                        C.C.C.C.  = o = & o o o o o b t.v.C.C.C.C.C.C.v.5.h o o o o o o         C.C.F.F.                        ",
"                        S.C.C.C.  H y = & o o o o o h 0.C.C.C.C.C.C.C.C.5.j o o o o o o         C.C.C.F.                        ",
"                      C.C.C.C.C.S.g.%.4 = X o o o o h 0.z.C.C.C.C.C.C.z.3.4 o o o o o =   C.C.C.C.C.C.C.C.                      ",
"                      C.C.C.C.C.C.v.v.t.9 o o o o o h %.C.C.C.C.C.C.C.v.3.h o o o o o 4 h.C.C.C.C.C.C.C.C.                      ",
"                      C.C.C.C.C.C.C.C.v.%.h o o o o , %.v.C.C.C.C.C.C.v.%., o o o o h 5.v.C.C.C.C.C.C.C.C.                      ",
"                      C.C.C.C.C.C.C.C.C.t.%.4 = o o 4 J z.C.C.C.C.C.C.z.J 4 o o o 4 3.C.C.C.C.C.C.C.C.C.C.                      ",
"                      C.C.C.C.C.C.C.C.C.C.t.} o o o , V z.C.C.C.C.C.C.z.J 4 o o = %.h.C.C.C.C.C.C.C.C.C.C.                      ",
"                      C.C.C.C.C.C.C.C.C.C.v.0.b = o o 4 v.F.C.C.C.C.F.g.h o o = J t.C.C.C.C.C.C.C.C.C.C.v.                      ",
"                & = k   C.C.C.C.C.C.C.C.C.C.z.0.j = o 4 z.C.C.C.C.C.C.g.4 o o , 9.C.C.C.C.C.C.C.C.C.C.C.J h # o o               ",
"                o o o   3.z.C.C.C.C.C.C.C.C.C.v.%.h = 4 0.z.C.C.C.C.m.g.4 & 4 %.v.C.C.C.C.C.C.C.C.C.v.3.4 o o o o 2             ",
"        o = = = o o o o o %.v.C.C.C.C.C.C.C.C.C.v.+.= = 3.z.C.C.C.C.m.g.4 = J C.C.C.C.C.C.C.C.C.C.z.3.w o o o o o o o           ",
"        o o o o o o o o o z 3.C.C.C.C.C.C.C.C.C.F.5.c # 3.h.C.v.C.C.v.3., b 3.C.C.C.C.C.C.C.C.C.C.J 4 o o o o o o o o           ",
"        o o o o o o o o o # h J t.z.C.C.C.C.C.C.m.h.3.h k | 3.| H %.J J h %.z.v.C.C.C.C.C.C.v.t.J 4 o o o o o o o o #           ",
"        o o o o o o o o o o o = J 9.C.C.C.C.C.C.B.z.3.h h 4 h , 2 4 h 4 h 3.v.C.C.C.C.C.C.v.0.J , o o o o o o o o o             ",
"        o o o o o o o o o o o o o J 0.v.C.C.C.C.z.3.j o o o o o o o o o o J 9.k.C.C.C.C.v.7.J o o o o o o o o o o               ",
"          o o o o o o o o o o o o o h J z.v.C.z.} h o o o o o o o o o o o # 4 } z.v.C.v.J h = o o o o o o o o 2                 ",
"            o o o o o o o o o o o o = 4 } h.v.0.4 o o o o o o o o o o o o o 9 4 3.h.t.%.4 = o o o o o o o o                     ",
"              , h h h h z z 4 4 o o o = 4 +.%.V 9 o o o # ( _ X.X._ 7 # o o o # V %.J 4 o o o o = h h b J 3.                    ",
"                0.3.3.0.%.3.%.V 4 4 4 4 9 = = = o o o # ( o.P E U P o.) # o o X o o = , 4 4 4 h V } 3.t.C.C.Z.Z.                ",
"          C.C.C.v.v.v.C.z.v.v.z.v.h.t.7.3.V 4 o o o # ) K I W W E E U G.) # o o o 4 J 3.0.t.h.h.t.v.v.C.C.S.Z.Z.S.C.C.          ",
"        C.C.C.C.C.C.C.C.C.C.C.C.C.C.v.z.h.} 4 o o o ( o.U W ^ ^ E ^ E U o.( o o X h %.t.v.v.C.C.C.C.C.C.B.Z.Z.Z.C.C.S.C.        ",
"        C.C.C.C.C.C.C.C.C.C.C.C.C.C.C.C.v.} 2 o o o _ K U ^ ^ ^ ^ ^ ^ E L _ o o o , %.C.C.C.C.C.C.C.C.C.C.S.Z.S.C.C.C.C.        ",
"      C.C.C.C.C.C.C.C.C.C.C.C.C.C.C.C.C.C.J o o o o ` I E E ^ ^ ^ ^ E E I _ o o o = J C.C.C.C.C.C.C.C.C.C.B.Z.S.C.C.C.C.C.      ",
"      C.C.C.C.C.C.C.C.C.C.C.C.C.C.C.C.C.F...4 o o o X.E E ^ ^ ^ ^ ^ ^ E E X.= o o 4 | F.F.B.C.C.C.C.C.C.C.C.C.C.C.C.C.C.C.      ",
"      C.C.C.C.C.C.C.C.C.C.C.C.C.C.C.C.C.F...4 o o = _ L ^ ^ ^ ^ ^ ^ ^ E L _ o o # 4 | F.B.F.C.C.C.C.C.C.C.C.C.C.C.C.C.C.C.      ",
"      C.C.C.C.C.C.C.C.C.C.C.v.C.C.C.C.v.z.| h o o o ( o.U E E ^ ^ E ^ U o.( o o o h | t.z.C.C.C.C.C.C.C.C.C.C.C.C.C.C.C.C.      ",
"          C.C.v.z.C.v.v.C.v.v.v.h.h.t.7.%.} 4 o o o 4 ) G.T U E ^ E U G.) # o o o 4 J 3.7.t.z.h.z.z.v.v.C.v.v.v.C.z.C.          ",
"              0.3.3.%.3.%.3.%.V 4 4 4 4 4 o o o o o o # ) o.K U U L o.) # o o o o o 2 4 4 4 4 w V J } %.0.0.3.3.t.              ",
"            4 z h 4 4 z z 4 4 , = o o o o J | V = o o o # ( _ _ X._ ( # o o o 4 V 3.J , 2 o o o 4 4 4 h z z z w b               ",
"          o o o o o = = o o o o o & 4 j J 0.h.5.4 # o o o o o o o o o o o o = h 0.v.t.| w o o o o o o o = & & . o o             ",
"        o o o o o o o o o o o o o = c 3.z.C.F.z.} 4 9 o o o o o o o o o o o h } v.C.C.z.J h o o o o o o o = & & o o 2           ",
"        , o o o o o o o o o = o o V 0.C.C.C.C.C.v.0.J X o o o o o o o o o c 3.v.C.C.C.C.v.9.J o o o o o o o o o o o #           ",
"        o o o o o o o o o o # j V 0.v.C.C.C.C.C.v.v.3.h h 4 4 h o 4 4 h h %.h.v.C.C.C.C.C.v.0.3.4 o o o o o o o o o o           ",
"        o o o o o o o o o o j | 0.v.C.C.C.C.C.C.C.v.%.j V %.%.J J | %.} 4 5.v.C.C.C.C.C.C.C.C.v.} h o o o o o o o o             ",
"        o o o o o o o o 9 h >.m.C.C.C.C.C.C.C.C.v.3.V 4 %.x.C.C.F.v.h.3., J 0.C.C.C.C.C.C.C.C.C.C.%.h o o o o o o               ",
"          o o o = o o = h 3.C.C.C.C.C.C.C.C.C.C.F.J o 4 3.k.C.C.C.C.v.h.4 # V t.C.C.C.C.C.C.C.C.C.z.z.                          ",
"                        7.x.C.C.C.C.C.C.C.C.C.v.| 4 o 4 t.C.C.C.C.C.C.h.4 o h %.v.C.C.C.C.C.C.C.C.C.C.C.                        ",
"                        C.C.C.C.C.C.C.C.C.C.v.9.4 o o 4 z.C.C.C.C.C.C.h.4 o = 4 7.z.C.C.C.C.C.C.C.C.C.C.                        ",
"                      C.C.C.C.C.C.C.C.C.C.C.t.H , o o 4 k.C.C.C.C.C.C.h.h o o 9 h 5.v.C.C.C.C.C.C.C.C.C.C.                      ",
"                      C.C.C.C.C.C.C.C.C.C.x.%., = o 9 k v.C.C.C.C.C.C.x.V = $ & = J t.C.C.C.C.C.C.C.C.C.C.                      ",
"                      C.C.C.C.C.C.C.C.C.x.J 4 o o o 4 V v.C.C.C.C.C.C.v.+., . . o h | t.C.C.C.B.C.C.C.C.C.                      ",
"                      C.C.C.C.C.C.C.v.x.J h o o o o 4 %.v.C.C.C.C.C.C.C.%.z o . o o h J z.C.S.S.C.C.C.C.C.                      ",
"                      C.C.C.C.C.C.v.x.%., = o o o 9 4 3.v.C.C.C.C.C.C.v.%.y o o o o o , t.B.S.C.C.C.C.C.C.                      ",
"                      C.C.C.C.C.C.C.7.4 o o o o o o h %.v.C.C.C.C.C.C.v.-.z = o o o o o 4 7.C.C.C.C.C.C.C.                      ",
"                        C.C.C.C.  %.z o o o o o o o z 0.v.C.C.C.C.C.C.v.%.z & o o o o o o J     C.C.C.C.                        ",
"                        S.S.C.C.    o o o o o o o o V h.C.C.C.C.C.C.C.v.%.z o o o o o o o       C.C.C.S.                        ",
"                                      o o o o o o o V C.C.C.C.C.C.C.C.C.%.h o o o o o o o                                       ",
"                                      o o o o o ,       C.C.C.C.C.C.C.C.  , = o o o o o                                         ",
"                                        o o o o         C.C.C.C.C.C.C.C.    o o o o o o                                         ",
"                                        o # o o         C.C.C.C.C.C.C.C.      o # o o ,                                         ",
"                                                          C.C.C.C.C.C.                                                          ",
"                                                              C.C.                                                              ",
"                                                                                                                                ",
"                                                                                                                                ",
"                                                                                                                                "
};
